<?xml version="1.0" encoding="UTF-8" standalone="no"?>
<!DOCTYPE svg PUBLIC "-//W3C//DTD SVG 1.1//EN" "http://www.w3.org/Graphics/SVG/1.1/DTD/svg11.dtd">
<svg version="1.1" xmlns="http://www.w3.org/2000/svg" xmlns:xlink="http://www.w3.org/1999/xlink" preserveAspectRatio="xMidYMid meet" viewBox="0 0 640 640" width="640" height="640"><defs><path d="M291.5 577.69C291.5 577.68 291.5 577.68 291.5 577.69C291.5 589.09 291.5 595.43 291.5 596.7C291.5 596.7 291.5 596.7 291.5 596.7C280.88 596.7 274.98 596.7 273.8 596.7C273.8 596.7 273.8 596.7 273.8 596.7C273.8 585.29 273.8 578.95 273.8 577.69C273.8 577.68 273.8 577.68 273.8 577.69C284.42 577.68 290.32 577.68 291.5 577.69Z" id="cCQVaGrlG"></path><path d="M545.92 247.6C545.92 247.6 545.92 247.6 545.92 247.6C545.92 259 545.92 265.34 545.92 266.61C545.92 266.61 545.92 266.61 545.92 266.61C535.29 266.61 529.39 266.61 528.21 266.61C528.21 266.61 528.21 266.61 528.21 266.61C528.21 255.2 528.21 248.86 528.21 247.6C528.21 247.6 528.21 247.6 528.21 247.6C538.84 247.6 544.74 247.6 545.92 247.6Z" id="e2rKOQuFnz"></path><path d="M125.24 171.9C125.24 171.9 125.24 171.9 125.24 171.9C125.24 183.31 125.24 189.64 125.24 190.91C125.24 190.91 125.24 190.91 125.24 190.91C114.62 190.91 108.72 190.91 107.54 190.91C107.54 190.91 107.54 190.91 107.54 190.91C107.54 179.5 107.54 173.17 107.54 171.9C107.54 171.9 107.54 171.9 107.54 171.9C118.16 171.9 124.06 171.9 125.24 171.9Z" id="c15o0DEgGI"></path><path d="M190.97 71.66C190.97 71.66 190.97 71.66 190.97 71.66C190.97 83.06 190.97 89.4 190.97 90.67C190.97 90.67 190.97 90.67 190.97 90.67C180.34 90.67 174.44 90.67 173.26 90.67C173.26 90.67 173.26 90.67 173.26 90.67C173.26 79.26 173.26 72.92 173.26 71.66C173.26 71.66 173.26 71.66 173.26 71.66C183.88 71.66 189.79 71.66 190.97 71.66Z" id="cIt0bsyUw"></path><path d="M493.7 103.47L474.69 103.47L474.69 122.48L455.69 122.48L455.69 141.49L474.69 141.49L474.69 160.49L493.7 160.49L493.7 141.49L512.71 141.49L512.71 122.48L493.7 122.48L493.7 103.47Z" id="b19A3rwnnl"></path><path d="M493.44 558.84C504.08 558.84 512.71 567.47 512.71 578.11C512.71 586.58 512.71 592.72 512.71 601.19C512.71 611.83 504.08 620.46 493.44 620.46C416.88 620.46 206.47 620.46 129.91 620.46C119.27 620.46 110.64 611.83 110.64 601.19C110.64 592.72 110.64 586.58 110.64 578.11C110.64 567.47 119.27 558.84 129.91 558.84C206.47 558.84 416.88 558.84 493.44 558.84Z" id="d1w1cyNyov"></path><path d="M125.9 324.81L106.89 324.81L106.89 337.61L94.08 337.61L94.08 356.62L106.89 356.62L106.89 369.43L125.9 369.43L125.9 356.62L138.71 356.62L138.71 337.61L125.9 337.61L125.9 324.81Z" id="a9ml7tPrD"></path><path d="M490.28 506.41C500.13 506.41 508.11 514.4 508.11 524.25C508.11 532.09 508.11 537.77 508.11 545.6C508.11 555.45 500.13 563.44 490.28 563.44C415.5 563.44 209 563.44 134.22 563.44C124.37 563.44 116.39 555.45 116.39 545.6C116.39 537.77 116.39 532.09 116.39 524.25C116.39 514.4 124.37 506.41 134.22 506.41C209 506.41 415.5 506.41 490.28 506.41Z" id="b1adLTXb34"></path><path d="M508.93 547.55C513.95 547.55 518.03 551.63 518.03 556.65C518.03 561.18 518.03 565.69 518.03 570.22C518.03 575.25 513.95 579.32 508.93 579.32C501.82 579.32 489.6 579.32 482.5 579.32C477.47 579.32 473.4 575.25 473.4 570.22C473.4 565.69 473.4 561.18 473.4 556.65C473.4 551.63 477.47 547.55 482.5 547.55C489.6 547.55 501.82 547.55 508.93 547.55Z" id="h2zbnOLSHD"></path><path d="M146.17 547.55C151.19 547.55 155.27 551.63 155.27 556.65C155.27 561.18 155.27 565.69 155.27 570.22C155.27 575.25 151.19 579.32 146.17 579.32C139.06 579.32 126.84 579.32 119.74 579.32C114.71 579.32 110.64 575.25 110.64 570.22C110.64 565.69 110.64 561.18 110.64 556.65C110.64 551.63 114.71 547.55 119.74 547.55C126.84 547.55 139.06 547.55 146.17 547.55Z" id="c8OtoVvI6"></path><path d="M377.4 53.44L377.4 257.78L377.41 259.79L377.46 261.79L377.53 263.8L377.64 265.79L377.77 267.79L377.94 269.77L378.13 271.76L378.36 273.73L378.61 275.71L378.9 277.67L379.21 279.63L379.55 281.58L379.92 283.53L380.32 285.47L380.75 287.4L381.21 289.32L381.69 291.24L382.21 293.15L382.76 295.05L383.33 296.94L383.93 298.82L384.56 300.69L385.22 302.56L385.91 304.41L386.62 306.25L387.37 308.09L388.14 309.91L388.94 311.72L389.76 313.52L390.62 315.31L391.5 317.09L392.41 318.86L393.35 320.61L394.32 322.36L395.31 324.09L396.33 325.8L397.38 327.51L398.45 329.2L399.55 330.88L400.68 332.54L401.01 333.04L464.9 439.31L517.38 526.59L518.41 528.35L519.39 530.13L520.32 531.93L521.19 533.75L522.02 535.58L522.79 537.42L523.52 539.27L524.19 541.14L524.8 543.02L525.37 544.91L525.89 546.8L526.35 548.71L526.77 550.62L527.13 552.54L527.44 554.47L527.69 556.4L527.9 558.33L528.06 560.27L528.16 562.21L528.21 564.16L528.21 566.1L528.16 568.04L528.06 569.98L527.9 571.92L527.69 573.86L527.44 575.79L527.13 577.72L526.76 579.65L526.35 581.56L525.89 583.47L525.37 585.38L524.8 587.27L524.18 589.15L523.51 591.03L522.78 592.89L522.01 594.74L521.18 596.58L520.3 598.4L519.37 600.21L518.39 602L517.36 603.77L516.29 605.5L515.18 607.19L514.03 608.85L512.84 610.46L511.62 612.04L510.36 613.59L509.07 615.09L507.74 616.55L506.37 617.98L504.97 619.36L503.54 620.7L502.08 622L500.59 623.26L499.07 624.48L497.51 625.66L495.93 626.79L494.32 627.88L492.68 628.92L491.01 629.92L489.32 630.88L487.61 631.79L485.87 632.66L484.1 633.48L482.31 634.25L480.5 634.98L478.67 635.66L476.82 636.29L474.95 636.87L473.06 637.41L471.15 637.9L469.22 638.33L467.27 638.72L465.31 639.06L463.33 639.34L461.34 639.58L459.33 639.76L457.31 639.89L455.28 639.97L453.24 640L172.3 640L170.25 639.97L168.22 639.89L166.2 639.76L164.2 639.58L162.2 639.34L160.23 639.06L158.26 638.72L156.32 638.33L154.39 637.9L152.48 637.41L150.59 636.87L148.71 636.29L146.86 635.66L145.03 634.98L143.22 634.25L141.43 633.48L139.67 632.66L137.93 631.79L136.21 630.88L134.52 629.92L132.85 628.92L131.22 627.88L129.61 626.79L128.02 625.66L126.47 624.48L124.95 623.26L123.45 622L121.99 620.7L120.56 619.36L119.16 617.98L117.8 616.55L116.47 615.09L115.17 613.59L113.91 612.05L112.69 610.47L111.51 608.85L110.36 607.19L109.25 605.5L108.18 603.77L107.15 602L106.17 600.21L105.23 598.4L104.35 596.58L103.53 594.74L102.75 592.89L102.03 591.03L101.35 589.16L100.73 587.27L100.16 585.38L99.65 583.47L99.18 581.56L98.77 579.65L98.41 577.72L98.1 575.79L97.84 573.86L97.63 571.92L97.48 569.98L97.37 568.04L97.32 566.1L97.32 564.16L97.37 562.22L97.48 560.27L97.63 558.34L97.84 556.4L98.1 554.47L98.41 552.54L98.77 550.62L99.18 548.71L99.64 546.81L100.16 544.91L100.73 543.02L101.35 541.14L102.02 539.28L102.74 537.42L103.51 535.58L104.34 533.75L105.21 531.94L106.14 530.14L107.12 528.35L108.15 526.59L163.82 434L163.83 434L224.85 332.54L225.98 330.88L227.08 329.2L228.15 327.51L229.2 325.81L230.22 324.09L231.22 322.36L232.18 320.62L233.12 318.86L234.03 317.09L234.91 315.32L235.77 313.53L236.6 311.72L237.4 309.91L238.17 308.09L238.91 306.25L239.63 304.41L240.31 302.56L240.97 300.69L241.6 298.82L242.2 296.94L242.78 295.05L243.32 293.15L243.84 291.24L244.32 289.32L244.78 287.4L245.21 285.47L245.61 283.53L245.98 281.58L246.32 279.63L246.64 277.67L246.92 275.71L247.17 273.74L247.4 271.76L247.59 269.78L247.76 267.79L247.89 265.79L248 263.8L248.07 261.8L248.12 259.79L248.13 257.78L248.13 53.44L232.93 53.44L232.93 0L392.61 0L392.61 53.44L377.4 53.44ZM124.45 536.38L123.68 537.7L122.95 539.03L122.25 540.37L121.6 541.72L120.98 543.09L120.41 544.46L119.87 545.85L119.37 547.24L118.91 548.64L118.48 550.05L118.1 551.46L117.75 552.89L117.44 554.31L117.17 555.75L116.94 557.18L116.75 558.62L116.6 560.07L116.48 561.51L116.4 562.96L116.37 564.41L116.37 565.86L116.4 567.31L116.48 568.76L116.6 570.2L116.75 571.65L116.94 573.09L117.17 574.53L117.44 575.96L117.75 577.39L118.1 578.82L118.49 580.24L118.91 581.65L119.37 583.06L119.87 584.45L120.42 585.84L120.99 587.22L121.61 588.59L122.27 589.95L122.96 591.3L123.7 592.64L124.46 593.96L125.26 595.25L126.09 596.51L126.95 597.75L127.83 598.96L128.74 600.13L129.68 601.28L130.65 602.41L131.64 603.5L132.66 604.56L133.7 605.59L134.77 606.59L135.86 607.56L136.97 608.5L138.11 609.41L139.27 610.29L140.45 611.13L141.65 611.95L142.87 612.73L144.12 613.47L145.38 614.19L146.66 614.87L147.96 615.51L149.27 616.12L150.61 616.7L151.96 617.24L153.32 617.75L154.7 618.22L156.1 618.66L157.51 619.06L158.94 619.42L160.38 619.75L161.83 620.03L163.29 620.29L164.77 620.5L166.25 620.68L167.75 620.81L169.26 620.91L170.77 620.97L172.3 620.99L453.23 620.99L454.76 620.97L456.28 620.91L457.78 620.81L459.28 620.68L460.77 620.5L462.24 620.29L463.7 620.03L465.16 619.75L466.59 619.42L468.02 619.06L469.43 618.66L470.83 618.22L472.21 617.75L473.58 617.24L474.93 616.7L476.26 616.12L477.58 615.51L478.88 614.87L480.16 614.19L481.42 613.47L482.66 612.73L483.88 611.95L485.08 611.13L486.26 610.29L487.42 609.41L488.56 608.5L489.67 607.56L490.77 606.59L491.83 605.59L492.87 604.56L493.89 603.5L494.88 602.41L495.85 601.28L496.79 600.13L497.7 598.96L498.59 597.75L499.44 596.51L500.27 595.25L501.07 593.96L501.84 592.64L502.57 591.3L503.27 589.95L503.92 588.59L504.54 587.22L505.12 585.84L505.66 584.46L506.16 583.06L506.62 581.65L507.05 580.24L507.43 578.82L507.78 577.39L508.09 575.96L508.36 574.53L508.59 573.09L508.78 571.65L508.94 570.2L509.05 568.76L509.13 567.31L509.17 565.86L509.17 564.41L509.13 562.96L509.05 561.51L508.94 560.07L508.78 558.62L508.59 557.18L508.36 555.75L508.09 554.31L507.78 552.89L507.43 551.46L507.05 550.05L506.63 548.64L506.16 547.24L505.66 545.85L505.12 544.46L504.55 543.09L503.93 541.72L503.28 540.37L502.59 539.03L501.85 537.7L501.09 536.38L450.96 453.01L174.57 453.01L124.45 536.38ZM267.14 257.78L267.13 259.32L267.08 260.9L267 262.5L266.88 264.14L266.73 265.8L266.55 267.5L266.33 269.23L266.09 270.98L265.8 272.77L265.49 274.58L265.14 276.43L264.76 278.31L264.35 280.21L263.9 282.15L263.42 284.12L262.91 286.11L262.36 288.14L261.78 290.2L261.17 292.29L260.53 294.4L259.85 296.55L259.14 298.73L258.39 300.94L257.61 303.18L256.8 305.44L255.96 307.74L255.08 310.07L254.17 312.43L253.23 314.82L252.25 317.24L251.24 319.69L250.2 322.17L249.13 324.67L248.02 327.21L246.88 329.78L245.7 332.38L244.49 335.01L243.25 337.67L241.98 340.36L240.67 343.08L186 434L439.53 434L384.87 343.09L383.68 341.33L382.52 339.56L381.38 337.78L380.27 335.99L379.19 334.18L378.14 332.36L377.11 330.53L376.1 328.68L375.13 326.83L374.18 324.96L373.26 323.08L372.37 321.19L371.5 319.29L370.66 317.38L369.84 315.45L369.06 313.52L368.3 311.58L367.57 309.63L366.87 307.66L366.19 305.69L365.54 303.71L364.92 301.73L364.33 299.73L363.76 297.72L363.23 295.71L362.72 293.69L362.24 291.66L361.78 289.62L361.36 287.58L360.96 285.53L360.59 283.47L360.25 281.41L359.94 279.34L359.66 277.26L359.4 275.18L359.18 273.1L358.98 271L358.81 268.91L358.68 266.8L358.57 264.7L331.37 264.7L331.37 245.69L358.39 245.69L358.39 221.19L314.89 221.19L314.89 202.18L358.39 202.18L358.39 177.68L331.37 177.68L331.37 158.67L358.39 158.67L358.39 134.17L314.89 134.17L314.89 115.16L358.39 115.16L358.39 90.66L331.37 90.66L331.37 71.65L358.39 71.65L358.39 53.44L267.14 53.44L267.14 257.78ZM251.94 34.43L373.6 34.43L373.6 19.01L251.94 19.01L251.94 34.43Z" id="a14wTPCDwH"></path></defs><g><g><g><use xlink:href="#cCQVaGrlG" opacity="1" fill="#000000" fill-opacity="1"></use><g><use xlink:href="#cCQVaGrlG" opacity="1" fill-opacity="0" stroke="#000000" stroke-width="1" stroke-opacity="0"></use></g></g><g><use xlink:href="#e2rKOQuFnz" opacity="1" fill="#000000" fill-opacity="1"></use><g><use xlink:href="#e2rKOQuFnz" opacity="1" fill-opacity="0" stroke="#000000" stroke-width="1" stroke-opacity="0"></use></g></g><g><use xlink:href="#c15o0DEgGI" opacity="1" fill="#000000" fill-opacity="1"></use><g><use xlink:href="#c15o0DEgGI" opacity="1" fill-opacity="0" stroke="#000000" stroke-width="1" stroke-opacity="0"></use></g></g><g><use xlink:href="#cIt0bsyUw" opacity="1" fill="#000000" fill-opacity="1"></use><g><use xlink:href="#cIt0bsyUw" opacity="1" fill-opacity="0" stroke="#000000" stroke-width="1" stroke-opacity="0"></use></g></g><g><use xlink:href="#b19A3rwnnl" opacity="1" fill="#000000" fill-opacity="1"></use><g><use xlink:href="#b19A3rwnnl" opacity="1" fill-opacity="0" stroke="#000000" stroke-width="1" stroke-opacity="0"></use></g></g><g><use xlink:href="#d1w1cyNyov" opacity="1" fill="#88d50d" fill-opacity="1"></use></g><g><use xlink:href="#a9ml7tPrD" opacity="1" fill="#000000" fill-opacity="1"></use><g><use xlink:href="#a9ml7tPrD" opacity="1" fill-opacity="0" stroke="#000000" stroke-width="1" stroke-opacity="0"></use></g></g><g><use xlink:href="#b1adLTXb34" opacity="1" fill="#88d50d" fill-opacity="1"></use></g><g><use xlink:href="#h2zbnOLSHD" opacity="1" fill="#88d50d" fill-opacity="1"></use></g><g><use xlink:href="#c8OtoVvI6" opacity="1" fill="#88d50d" fill-opacity="1"></use></g><g><use xlink:href="#a14wTPCDwH" opacity="1" fill="#000000" fill-opacity="1"></use><g><use xlink:href="#a14wTPCDwH" opacity="1" fill-opacity="0" stroke="#000000" stroke-width="1" stroke-opacity="0"></use></g><g><filter id="shadow13887978" x="88.32" y="-9" width="449.89" height="659" filterUnits="userSpaceOnUse" primitiveUnits="userSpaceOnUse"><feFlood></feFlood><feComposite in2="SourceAlpha" operator="out"></feComposite><feGaussianBlur stdDeviation="1"></feGaussianBlur><feOffset dx="1" dy="1" result="afterOffset"></feOffset><feFlood flood-color="#000000" flood-opacity="0.5"></feFlood><feComposite in2="afterOffset" operator="in"></feComposite><feMorphology operator="dilate" radius="1"></feMorphology><feComposite in2="SourceAlpha" operator="in"></feComposite></filter><path d="M377.4 53.44L377.4 257.78L377.41 259.79L377.46 261.79L377.53 263.8L377.64 265.79L377.77 267.79L377.94 269.77L378.13 271.76L378.36 273.73L378.61 275.71L378.9 277.67L379.21 279.63L379.55 281.58L379.92 283.53L380.32 285.47L380.75 287.4L381.21 289.32L381.69 291.24L382.21 293.15L382.76 295.05L383.33 296.94L383.93 298.82L384.56 300.69L385.22 302.56L385.91 304.41L386.62 306.25L387.37 308.09L388.14 309.91L388.94 311.72L389.76 313.52L390.62 315.31L391.5 317.09L392.41 318.86L393.35 320.61L394.32 322.36L395.31 324.09L396.33 325.8L397.38 327.51L398.45 329.2L399.55 330.88L400.68 332.54L401.01 333.04L464.9 439.31L517.38 526.59L518.41 528.35L519.39 530.13L520.32 531.93L521.19 533.75L522.02 535.58L522.79 537.42L523.52 539.27L524.19 541.14L524.8 543.02L525.37 544.91L525.89 546.8L526.35 548.71L526.77 550.62L527.13 552.54L527.44 554.47L527.69 556.4L527.9 558.33L528.06 560.27L528.16 562.21L528.21 564.16L528.21 566.1L528.16 568.04L528.06 569.98L527.9 571.92L527.69 573.86L527.44 575.79L527.13 577.72L526.76 579.65L526.35 581.56L525.89 583.47L525.37 585.38L524.8 587.27L524.18 589.15L523.51 591.03L522.78 592.89L522.01 594.74L521.18 596.58L520.3 598.4L519.37 600.21L518.39 602L517.36 603.77L516.29 605.5L515.18 607.19L514.03 608.85L512.84 610.46L511.62 612.04L510.36 613.59L509.07 615.09L507.74 616.55L506.37 617.98L504.97 619.36L503.54 620.7L502.08 622L500.59 623.26L499.07 624.48L497.51 625.66L495.93 626.79L494.32 627.88L492.68 628.92L491.01 629.92L489.32 630.88L487.61 631.79L485.87 632.66L484.1 633.48L482.31 634.25L480.5 634.98L478.67 635.66L476.82 636.29L474.95 636.87L473.06 637.41L471.15 637.9L469.22 638.33L467.27 638.72L465.31 639.06L463.33 639.34L461.34 639.58L459.33 639.76L457.31 639.89L455.28 639.97L453.24 640L172.3 640L170.25 639.97L168.22 639.89L166.2 639.76L164.2 639.58L162.2 639.34L160.23 639.06L158.26 638.72L156.32 638.33L154.39 637.9L152.48 637.41L150.59 636.87L148.71 636.29L146.86 635.66L145.03 634.98L143.22 634.25L141.43 633.48L139.67 632.66L137.93 631.79L136.21 630.88L134.52 629.92L132.85 628.92L131.22 627.88L129.61 626.79L128.02 625.66L126.47 624.48L124.95 623.26L123.45 622L121.99 620.7L120.56 619.36L119.16 617.98L117.8 616.55L116.47 615.09L115.17 613.59L113.91 612.05L112.69 610.47L111.51 608.85L110.36 607.19L109.25 605.5L108.18 603.77L107.15 602L106.17 600.21L105.23 598.4L104.35 596.58L103.53 594.74L102.75 592.89L102.03 591.03L101.35 589.16L100.73 587.27L100.16 585.38L99.65 583.47L99.18 581.56L98.77 579.65L98.41 577.72L98.1 575.79L97.84 573.86L97.63 571.92L97.48 569.98L97.37 568.04L97.32 566.1L97.32 564.16L97.37 562.22L97.48 560.27L97.63 558.34L97.84 556.4L98.1 554.47L98.41 552.54L98.77 550.62L99.18 548.71L99.64 546.81L100.16 544.91L100.73 543.02L101.35 541.14L102.02 539.28L102.74 537.42L103.51 535.58L104.34 533.75L105.21 531.94L106.14 530.14L107.12 528.35L108.15 526.59L163.82 434L163.83 434L224.85 332.54L225.98 330.88L227.08 329.2L228.15 327.51L229.2 325.81L230.22 324.09L231.22 322.36L232.18 320.62L233.12 318.86L234.03 317.09L234.91 315.32L235.77 313.53L236.6 311.72L237.4 309.91L238.17 308.09L238.91 306.25L239.63 304.41L240.31 302.56L240.97 300.69L241.6 298.82L242.2 296.94L242.78 295.05L243.32 293.15L243.84 291.24L244.32 289.32L244.78 287.4L245.21 285.47L245.61 283.53L245.98 281.58L246.32 279.63L246.64 277.67L246.92 275.71L247.17 273.74L247.4 271.76L247.59 269.78L247.76 267.79L247.89 265.79L248 263.8L248.07 261.8L248.12 259.79L248.13 257.78L248.13 53.44L232.93 53.44L232.93 0L392.61 0L392.61 53.44L377.4 53.44ZM124.45 536.38L123.68 537.7L122.95 539.03L122.25 540.37L121.6 541.72L120.98 543.09L120.41 544.46L119.87 545.85L119.37 547.24L118.91 548.64L118.48 550.05L118.1 551.46L117.75 552.89L117.44 554.31L117.17 555.75L116.94 557.18L116.75 558.62L116.6 560.07L116.48 561.51L116.4 562.96L116.37 564.41L116.37 565.86L116.4 567.31L116.48 568.76L116.6 570.2L116.75 571.65L116.94 573.09L117.17 574.53L117.44 575.96L117.75 577.39L118.1 578.82L118.49 580.24L118.91 581.65L119.37 583.06L119.87 584.45L120.42 585.84L120.99 587.22L121.61 588.59L122.27 589.95L122.96 591.3L123.7 592.64L124.46 593.96L125.26 595.25L126.09 596.51L126.95 597.75L127.83 598.96L128.74 600.13L129.68 601.28L130.65 602.41L131.64 603.5L132.66 604.56L133.7 605.59L134.77 606.59L135.86 607.56L136.97 608.5L138.11 609.41L139.27 610.29L140.45 611.13L141.65 611.95L142.87 612.73L144.12 613.47L145.38 614.19L146.66 614.87L147.96 615.51L149.27 616.12L150.61 616.7L151.96 617.24L153.32 617.75L154.7 618.22L156.1 618.66L157.51 619.06L158.94 619.42L160.38 619.75L161.83 620.03L163.29 620.29L164.77 620.5L166.25 620.68L167.75 620.81L169.26 620.91L170.77 620.97L172.3 620.99L453.23 620.99L454.76 620.97L456.28 620.91L457.78 620.81L459.28 620.68L460.77 620.5L462.24 620.29L463.7 620.03L465.16 619.75L466.59 619.42L468.02 619.06L469.43 618.66L470.83 618.22L472.21 617.75L473.58 617.24L474.93 616.7L476.26 616.12L477.58 615.51L478.88 614.87L480.16 614.19L481.42 613.47L482.66 612.73L483.88 611.95L485.08 611.13L486.26 610.29L487.42 609.41L488.56 608.5L489.67 607.56L490.77 606.59L491.83 605.59L492.87 604.56L493.89 603.5L494.88 602.41L495.85 601.28L496.79 600.13L497.7 598.96L498.59 597.75L499.44 596.51L500.27 595.25L501.07 593.96L501.84 592.64L502.57 591.3L503.27 589.95L503.92 588.59L504.54 587.22L505.12 585.84L505.66 584.46L506.16 583.06L506.62 581.65L507.05 580.24L507.43 578.82L507.78 577.39L508.09 575.96L508.36 574.53L508.59 573.09L508.78 571.65L508.94 570.2L509.05 568.76L509.13 567.31L509.17 565.86L509.17 564.41L509.13 562.96L509.05 561.51L508.94 560.07L508.78 558.62L508.59 557.18L508.36 555.75L508.09 554.31L507.78 552.89L507.43 551.46L507.05 550.05L506.63 548.64L506.16 547.24L505.66 545.85L505.12 544.46L504.55 543.09L503.93 541.72L503.28 540.37L502.59 539.03L501.85 537.7L501.09 536.38L450.96 453.01L174.57 453.01L124.45 536.38ZM267.14 257.78L267.13 259.32L267.08 260.9L267 262.5L266.88 264.14L266.73 265.8L266.55 267.5L266.33 269.23L266.09 270.98L265.8 272.77L265.49 274.58L265.14 276.43L264.76 278.31L264.35 280.21L263.9 282.15L263.42 284.12L262.91 286.11L262.36 288.14L261.78 290.2L261.17 292.29L260.53 294.4L259.85 296.55L259.14 298.73L258.39 300.94L257.61 303.18L256.8 305.44L255.96 307.74L255.08 310.07L254.17 312.43L253.23 314.82L252.25 317.24L251.24 319.69L250.2 322.17L249.13 324.67L248.02 327.21L246.88 329.78L245.7 332.38L244.49 335.01L243.25 337.67L241.98 340.36L240.67 343.08L186 434L439.53 434L384.87 343.09L383.68 341.33L382.52 339.56L381.38 337.78L380.27 335.99L379.19 334.18L378.14 332.36L377.11 330.53L376.1 328.68L375.13 326.83L374.18 324.96L373.26 323.08L372.37 321.19L371.5 319.29L370.66 317.38L369.84 315.45L369.06 313.52L368.3 311.58L367.57 309.63L366.87 307.66L366.19 305.69L365.54 303.71L364.92 301.73L364.33 299.73L363.76 297.72L363.23 295.71L362.72 293.69L362.24 291.66L361.78 289.62L361.36 287.58L360.96 285.53L360.59 283.47L360.25 281.41L359.94 279.34L359.66 277.26L359.4 275.18L359.18 273.1L358.98 271L358.81 268.91L358.68 266.8L358.57 264.7L331.37 264.7L331.37 245.69L358.39 245.69L358.39 221.19L314.89 221.19L314.89 202.18L358.39 202.18L358.39 177.68L331.37 177.68L331.37 158.67L358.39 158.67L358.39 134.17L314.89 134.17L314.89 115.16L358.39 115.16L358.39 90.66L331.37 90.66L331.37 71.65L358.39 71.65L358.39 53.44L267.14 53.44L267.14 257.78ZM251.94 34.43L373.6 34.43L373.6 19.01L251.94 19.01L251.94 34.43Z" id="bqsFiNyMv" fill="white" fill-opacity="1" filter="url(#shadow13887978)"></path></g></g></g></g></svg>