<svg height="496pt" viewBox="0 0 496 496" width="496pt" xmlns="http://www.w3.org/2000/svg" xmlns:xlink="http://www.w3.org/1999/xlink"><linearGradient id="linear0" gradientUnits="userSpaceOnUse" x1="248" x2="248" y1="496" y2="0"><stop offset="0" stop-color="#9f2fff"/><stop offset="1" stop-color="#0bb1d3"/></linearGradient><path d="m56 120h-56v-16h56zm64-16h-48v16h48zm0 32h-120v16h120zm-24 256h-40v16h40zm16 16h32v-16h-32zm-56 32h88v-16h-88zm352-64h40v-16h-40zm-48 0h32v-16h-32zm0-32h88v-16h-88zm-3.3125-256h139.3125v16h-132.6875l-32.410156 32.40625c.195312.53125.433594 1.027344.601562 1.570312l35.128906 112.390626c9.953126 5.066406 18.167969 13.328124 23.167969 23.320312 1.429688 2.886719 2.199219 6.136719 2.199219 9.367188 0 11.546874-9.398438 20.945312-20.945312 20.945312h-.949219c-2.242188 0-4.472657-.359375-6.609375-1.070312l-.886719-.296876c-15.617187-5.199218-28.035156-17.617187-33.226563-33.207031l-.75-2.226562-32.257812-59.144531c.792969 13.335937 2.976562 26.554687 6.65625 39.425781l1.320312 4.632812c5.082032 17.757813 7.648438 36.125 7.648438 54.597657 0 3.671874-.113281 7.351562-.3125 11.015624l-1.609375 29.042969 45.234375 45.230469h92.6875v16h-99.3125l-39.800781-39.800781-4.605469 83 21.832031 10.914062c6.101563 3.0625 9.886719 9.183594 9.886719 16 0 9.863281-8.023438 17.886719-17.886719 17.886719h-61.496093l-8.617188-107.679688-8.617188 107.679688h-61.496093c-9.863281 0-17.886719-8.023438-17.886719-17.886719 0-6.816406 3.792969-12.9375 9.878906-15.992187l21.832032-10.921875-1.886719-34.054688-41.136719-41.144531h-92.6875v-16h99.3125l33.183594 33.183594-4.183594-75.464844c-.199219-3.65625-.3125-7.335938-.3125-11.007812 0-18.472657 2.566406-36.832032 7.640625-54.582032l1.335937-4.648437c3.671876-12.863281 5.863282-26.082031 6.648438-39.417969l-32.257812 59.136719-.734376 2.207031c-5.199218 15.601562-17.617187 28.019531-33.207031 33.210938l-.921875.304687c-2.136718.71875-4.359375 1.078125-6.609375 1.078125h-.949219c-11.546874 0-20.945312-9.398438-20.945312-20.945312 0-3.230469.769531-6.480469 2.207031-9.367188 4.992188-9.992188 13.207031-18.253906 23.167969-23.320312l35.136719-112.390626c.777343-2.488281 1.847656-4.824218 3.160156-7l-42.984375-42.976562h-124.6875v-16h131.3125l47.785156 47.785156c2.230469-1.28125 4.621094-2.3125 7.160156-3.03125l37.742188-10.785156v-14.65625l-8-8c-5.160156-5.152344-8-12.015625-8-19.3125v-24c0-22.054688 17.945312-40 40-40s40 17.945312 40 40v24c0 7.296875-2.839844 14.160156-8 19.3125l-8 8v14.65625l37.742188 10.785156c4.441406 1.261719 8.425781 3.484375 11.832031 6.359375zm-132.6875-24c0 3.023438 1.175781 5.855469 3.3125 8l12.6875 12.6875c4.28125 4.265625 11.71875 4.265625 16 0l12.6875-12.6875c2.136719-2.144531 3.3125-4.976562 3.3125-8v-24c0-13.230469-10.769531-24-24-24s-24 10.769531-24 24zm63.71875 396.808594 8-143.96875c.183594-3.367188.28125-6.75.28125-10.128906 0-16.976563-2.367188-33.863282-7.03125-50.191407l-1.320312-4.632812c-5.082032-17.757813-7.648438-36.125-7.648438-54.597657v-5.289062h-8c-13.230469 0-24-10.769531-24-24 0 13.230469-10.769531 24-24 24h-8v5.289062c0 18.472657-2.566406 36.832032-7.640625 54.582032l-1.335937 4.648437c-4.65625 16.320313-7.023438 33.214844-7.023438 50.191407 0 3.378906.097656 6.761718.28125 10.128906l5.183594 93.320312.191406.191406-.167969.167969 2.792969 50.289063-31.234375 15.617187c-.640625.316407-1.046875.964844-1.046875 1.6875 0 1.039063.847656 1.886719 1.886719 1.886719h46.730469l14.917968-186.601562c-7.574218-4.644532-12.902344-14.246094-14.695312-17.824219l14.304687-7.167969c2.648438 5.25 7.207031 11.007812 9.207031 11.625 1.28125-.617188 5.839844-6.375 8.496094-11.625l14.304688 7.167969c-1.792969 3.578125-7.121094 13.167969-14.695313 17.824219l14.925781 186.601562h46.730469c1.039063 0 1.886719-.847656 1.886719-1.886719 0-.722656-.40625-1.371093-1.054688-1.699219zm28.503906-318.066406c-1.605468-5.15625-5.679687-9.117188-10.871094-10.597657l-49.351562-14.113281v-15.351562c-2.566406.785156-5.230469 1.320312-8 1.320312s-5.433594-.535156-8-1.320312v15.351562l-49.351562 14.113281c-5.191407 1.488281-9.265626 5.449219-10.863282 10.597657l-37.167968 118.890624-5.777344 2.886719c-7.015625 3.503907-12.816406 9.304688-16.320313 16.320313-.34375.679687-.519531 1.449218-.519531 2.214844 0 2.730468 2.214844 4.945312 4.945312 4.945312h.949219c.53125 0 1.066407-.089844 1.578125-.257812l.902344-.292969c10.824219-3.609375 19.457031-12.242188 23.074219-23.089844l1.519531-4.183594 43.046875-78.910156c-2.527344-3.808594-4.015625-8.363281-4.015625-13.265625v-8h16v8c0 4.414062 3.585938 8 8 8h8c4.414062 0 8-3.585938 8-8v-8h32v8c0 4.414062 3.585938 8 8 8h8c4.414062 0 8-3.585938 8-8v-8h16v8c0 4.902344-1.488281 9.464844-4.03125 13.273438l43.625 80.207031.957031 2.886719c3.609375 10.832031 12.242188 19.472656 23.089844 23.089843l.871094.285157c.527343.167968 1.054687.257812 1.59375.257812h.949219c2.730468 0 4.945312-2.214844 4.945312-4.945312 0-.765626-.175781-1.527344-.519531-2.207032-3.503907-7.015625-9.304688-12.816406-16.320313-16.320312l-5.777344-2.886719zm123.777344-6.742188h56v-16h-56zm-16-16h-56v16h56zm-56 48h16v-16h-16zm48-16h-16v16h16zm0 0" fill="url(#linear0)"/></svg>