<?xml version="1.0" encoding="iso-8859-1"?>
<!-- Generator: Adobe Illustrator 19.0.0, SVG Export Plug-In . SVG Version: 6.00 Build 0)  -->
<svg version="1.1" id="Layer_1" xmlns="http://www.w3.org/2000/svg" xmlns:xlink="http://www.w3.org/1999/xlink" x="0px" y="0px"
	 viewBox="0 0 512 512" style="enable-background:new 0 0 512 512;" xml:space="preserve">
<g>
	<g>
		<rect x="211.95" y="386.474" width="14.166" height="15.208"/>
	</g>
</g>
<g>
	<g>
		<rect x="314.309" y="386.474" width="14.166" height="15.208"/>
	</g>
</g>
<g>
	<g>
		<rect x="289.814" y="437.623" width="14.166" height="15.208"/>
	</g>
</g>
<g>
	<g>
		<rect x="219.037" y="462.148" width="14.166" height="15.208"/>
	</g>
</g>
<g>
	<g>
		<rect x="166.164" y="417.488" width="14.166" height="15.208"/>
	</g>
</g>
<g>
	<g>
		<rect x="240.297" y="270.093" width="14.166" height="15.208"/>
	</g>
</g>
<g>
	<g>
		<rect x="422.569" y="198.078" width="14.166" height="15.208"/>
	</g>
</g>
<g>
	<g>
		<rect x="86.028" y="137.52" width="14.166" height="15.208"/>
	</g>
</g>
<g>
	<g>
		<rect x="138.607" y="57.324" width="14.166" height="15.208"/>
	</g>
</g>
<g>
	<g>
		<rect x="266.577" y="311.499" width="14.166" height="15.208"/>
	</g>
</g>
<g>
	<g>
		<polygon points="394.963,97.982 394.963,82.777 379.755,82.777 379.755,97.982 364.549,97.982 364.549,113.19 379.755,113.19 
			379.755,128.395 394.963,128.395 394.963,113.19 410.169,113.19 410.169,97.982 		"/>
	</g>
</g>
<g>
	<g>
		<polygon points="100.719,270.091 100.719,259.845 85.511,259.845 85.511,270.091 75.265,270.091 75.265,285.299 85.511,285.299 
			85.511,295.544 100.719,295.544 100.719,285.299 110.965,285.299 110.965,270.091 		"/>
	</g>
</g>
<g>
	<g>
		<path d="M414.452,421.269l-41.983-69.822l-51.117-85.016l-0.258-0.399c-12.186-17.667-18.627-38.348-18.627-59.81V42.755h12.166V0
			H186.888v42.755h12.166v163.468c0,21.461-6.441,42.143-18.627,59.81l-48.819,81.17h-0.003L87.07,421.27
			c-11.269,18.742-11.569,41.296-0.803,60.332C97.034,500.636,116.517,512,138.387,512h224.75c21.869,0,41.352-11.364,52.119-30.4
			C426.021,462.565,425.721,440.011,414.452,421.269z M202.096,15.208h97.331v12.339h-97.331V15.208z M193.084,274.467
			c13.855-20.173,21.179-43.766,21.179-68.245V42.755h72.998v14.568h-21.62v15.208h21.62V92.13h-34.8v15.208h34.8v19.599h-21.62
			v15.208h21.62v19.599h-34.8v15.208h34.8v19.599h-21.62v15.208H287.4c1.02,22.49,8.232,44.062,21.04,62.71l43.732,72.733H149.351
			L193.084,274.467z M402.017,474.113c-8.032,14.201-22.567,22.679-38.882,22.679H138.387c-16.315,0-30.85-8.478-38.882-22.679
			s-7.808-31.027,0.599-45.008l40.102-66.696h221.108l40.102,66.696C409.825,443.087,410.049,459.913,402.017,474.113z"/>
	</g>
</g>
<g>
	<g>
		
			<rect x="364.75" y="402.376" transform="matrix(0.857 -0.5153 0.5153 0.857 -159.1917 250.8255)" width="15.208" height="19.754"/>
	</g>
</g>
<g>
	<g>
		<path d="M389.761,426.461l-0.316-0.526l-13.035,7.833l0.314,0.524c8.07,13.422,2.419,28.714-7.707,35.742l8.673,12.493
			C395.801,469.953,401.103,445.323,389.761,426.461z"/>
	</g>
</g>
<g>
</g>
<g>
</g>
<g>
</g>
<g>
</g>
<g>
</g>
<g>
</g>
<g>
</g>
<g>
</g>
<g>
</g>
<g>
</g>
<g>
</g>
<g>
</g>
<g>
</g>
<g>
</g>
<g>
</g>
</svg>
