<?xml version="1.0" encoding="iso-8859-1"?>
<!-- Generator: Adobe Illustrator 21.0.0, SVG Export Plug-In . SVG Version: 6.00 Build 0)  -->
<svg xmlns="http://www.w3.org/2000/svg" xmlns:xlink="http://www.w3.org/1999/xlink" version="1.1" id="Capa_1" x="0px" y="0px" viewBox="0 0 508.241 508.241" style="enable-background:new 0 0 508.241 508.241;" xml:space="preserve" width="512" height="512">
<g>
	<g>
		<g>
			<path style="fill:#FFAC1F;" d="M318.768,500.741c-8.017,0-14.516-6.499-14.516-14.516c0-64.042,33.108-97.128,62.318-126.32     c28.873-28.854,53.808-53.774,53.808-105.785s-24.935-76.93-53.808-105.785c-29.211-29.192-62.318-62.278-62.318-126.32     c0-8.017,6.499-14.516,14.516-14.516s14.516,6.499,14.516,14.516c0,52.011,24.935,76.93,53.809,105.785     c29.21,29.192,62.318,62.278,62.318,126.32s-33.108,97.128-62.318,126.32c-28.873,28.854-53.809,53.774-53.809,105.785     C333.284,494.242,326.785,500.741,318.768,500.741z"/>
		</g>
	</g>
	<g>
		<g>
			<path style="fill:#1BACD6;" d="M83.023,500.741c-8.017,0-14.516-6.499-14.516-14.516c0-64.042,33.108-97.128,62.318-126.32     c28.873-28.854,53.808-53.774,53.808-105.785s-24.935-76.93-53.808-105.785c-29.211-29.192-62.318-62.278-62.318-126.32     c0-8.017,6.499-14.516,14.516-14.516s14.516,6.499,14.516,14.516c0,52.011,24.935,76.93,53.809,105.785     c29.21,29.192,62.318,62.278,62.318,126.32s-33.108,97.128-62.318,126.32c-28.873,28.854-53.809,53.774-53.809,105.785     C97.539,494.242,91.04,500.741,83.023,500.741z"/>
		</g>
	</g>
	<g>
		<g>
			<path style="fill:#0075FF;" d="M189.473,500.741c-8.017,0-14.516-6.499-14.516-14.516c0-52.011-24.935-76.93-53.809-105.785     c-29.21-29.192-62.318-62.278-62.318-126.32s33.108-97.128,62.318-126.32c28.873-28.854,53.809-53.774,53.809-105.785     c0-8.017,6.499-14.516,14.516-14.516c8.017,0,14.516,6.499,14.516,14.516c0,64.042-33.108,97.128-62.318,126.32     C112.797,177.19,87.862,202.11,87.862,254.12s24.935,76.93,53.808,105.785c29.211,29.192,62.318,62.278,62.318,126.32     C203.989,494.242,197.489,500.741,189.473,500.741z"/>
		</g>
	</g>
	<g>
		<g>
			<path style="fill:#2052E0;" d="M87.862,254.12c0-52.011,24.935-76.93,53.808-105.785c24.915-24.899,52.649-52.648,60.271-100.007     c-10.478,51.153-42.299,77.687-70.737,101.37c-31.366,26.122-58.455,48.682-63.164,100.479s17.869,78.872,44.011,110.221     c11.406,13.678,23.462,28.15,33.028,45.295c17.454,20.623,29.877,43.83,29.877,80.531c0,8.017,6.499,14.516,14.516,14.516     s14.516-6.499,14.516-14.516c0-64.042-33.108-97.128-62.318-126.32C112.797,331.05,87.862,306.131,87.862,254.12z"/>
		</g>
	</g>
	<g>
		<g>
			<path style="fill:#F9CD45;" d="M425.217,500.741c-8.017,0-14.516-6.499-14.516-14.516c0-52.011-24.935-76.93-53.809-105.785     c-29.21-29.192-62.318-62.278-62.318-126.32s33.108-97.128,62.318-126.32c28.873-28.854,53.809-53.774,53.809-105.785     c0-8.017,6.499-14.516,14.516-14.516s14.516,6.499,14.516,14.516c0,64.042-33.108,97.128-62.318,126.32     c-28.873,28.854-53.808,53.774-53.808,105.785s24.935,76.93,53.808,105.785c29.211,29.192,62.318,62.278,62.318,126.32     C439.733,494.242,433.234,500.741,425.217,500.741z"/>
		</g>
	</g>
	<g>
		<g>
			<path style="fill:#F79B08;" d="M319.314,254.12c0-52.011,24.935-76.93,53.808-105.785     c24.915-24.899,52.649-52.648,60.271-100.007c-10.478,51.153-42.299,77.687-70.737,101.37     c-31.366,26.122-58.455,48.682-63.164,100.479s17.869,78.872,44.011,110.221c11.406,13.678,23.462,28.15,33.028,45.295     c17.454,20.623,29.877,43.83,29.877,80.531c0,8.017,6.499,14.516,14.516,14.516s14.516-6.499,14.516-14.516     c0-64.042-33.108-97.128-62.318-126.32C344.25,331.05,319.314,306.131,319.314,254.12z"/>
		</g>
	</g>
	<g>
		<path d="M166.985,132.939c23.577-26.07,44.504-58.454,44.504-110.923C211.489,9.876,201.612,0,189.473,0    c-11.893,0-21.607,9.481-21.997,21.281H105.02C104.631,9.481,94.917,0,83.023,0c-12.14,0-22.016,9.876-22.016,22.016    c0,52.445,21.751,85.628,44.513,110.901c-27.206,27.947-54.19,61.624-54.19,121.204c0,59.579,26.983,93.257,54.19,121.204    c-22.762,25.272-44.513,58.456-44.513,110.901c0,12.139,9.876,22.016,22.016,22.016s22.016-9.876,22.016-22.016    c0-14.561,2.005-26.851,5.717-37.808h50.992c1.75,5.198,3.144,10.726,4.109,16.703h-38.533c-4.142,0-7.5,3.358-7.5,7.5    s3.358,7.5,7.5,7.5h39.995c0.082,1.995,0.138,4.018,0.138,6.105c0,12.139,9.876,22.016,22.016,22.016s22.016-9.876,22.016-22.016    c0-52.469-20.927-84.853-44.504-110.923c28.121-29.02,54.181-63.112,54.181-121.182    C221.166,196.051,195.105,161.959,166.985,132.939z M136.263,101.301c-16.665-18.84-27.719-37.706-30.519-65.02h60.997    c-0.612,5.962-1.613,11.503-2.961,16.703h-30.53c-4.142,0-7.5,3.358-7.5,7.5s3.358,7.5,7.5,7.5h25.35    C153.122,80.456,145.396,91.022,136.263,101.301z M83.023,15c3.869,0,7.016,3.147,7.016,7.016    c0,40.44,14.175,65.945,35.928,90.278c-3.188,3.27-6.487,6.57-9.871,9.951C94.66,98.337,76.007,69.037,76.007,22.016    C76.007,18.147,79.155,15,83.023,15z M90.039,486.225c0,3.868-3.147,7.016-7.016,7.016s-7.016-3.147-7.016-7.016    c0-47.021,18.653-76.321,40.089-100.23c3.384,3.382,6.682,6.682,9.871,9.951C104.214,420.28,90.039,445.785,90.039,486.225z     M117.272,433.417c5.007-9.356,11.422-17.92,18.991-26.477c7.415,8.346,13.897,16.887,19.008,26.477H117.272z M189.473,493.241    c-3.868,0-7.016-3.147-7.016-7.016c0-4.356-0.188-8.518-0.515-12.54c0.05-0.349,0.084-0.703,0.084-1.065    c0-0.847-0.147-1.659-0.406-2.418c-4.748-44.649-29.308-69.221-55.172-95.068C98.269,346.972,66.33,315.053,66.33,254.12    s31.939-92.852,60.12-121.015c28.802-28.784,56.007-55.971,56.007-111.09c0-3.868,3.147-7.016,7.016-7.016    c3.869,0,7.016,3.147,7.016,7.016c0,60.934-31.94,92.853-60.12,121.015c-28.136,28.118-54.732,54.728-55.948,107.325    c-0.005,0.115-0.017,0.228-0.017,0.345c0,0.062,0.008,0.121,0.009,0.183c-0.021,1.074-0.05,2.141-0.05,3.238    c0,55.119,27.205,82.306,56.007,111.09c28.18,28.162,60.12,60.081,60.12,121.015C196.489,490.094,193.341,493.241,189.473,493.241    z M136.244,343.776c-7.12-7.326-13.663-14.523-19.338-22.17h38.59C149.836,329.27,143.316,336.479,136.244,343.776z     M164.993,306.606h-57.62c-2.753-5.21-5.107-10.728-6.975-16.703h71.603C170.117,295.859,167.756,301.384,164.993,306.606z     M175.537,274.903H96.916c-0.826-5.214-1.335-10.761-1.494-16.703h59.535c4.142,0,7.5-3.358,7.5-7.5s-3.358-7.5-7.5-7.5H95.782    c0.454-5.954,1.28-11.501,2.447-16.703h76.045c1.856,8.268,2.861,17.364,2.861,27.623    C177.134,261.611,176.573,268.493,175.537,274.903z M102.819,211.498c2.359-5.958,5.227-11.468,8.504-16.703h49.817    c3.304,5.263,6.172,10.774,8.528,16.703H102.819z M122.284,179.795c4.307-5.177,8.995-10.22,13.959-15.328    c4.986,5.143,9.649,10.192,13.915,15.328H122.284z M146.972,354.6c-0.057-0.057-0.112-0.112-0.169-0.169    c25.208-25.992,45.332-52.64,45.332-100.311c0-47.507-19.28-73.457-45.331-100.311c0.057-0.057,0.112-0.112,0.169-0.169    c3.206-3.204,6.457-6.458,9.708-9.787c26.675,27.578,49.485,57.89,49.485,110.267c0,52.377-22.81,82.689-49.485,110.267    C153.429,361.058,150.178,357.804,146.972,354.6z"/>
		<path d="M456.911,254.12c0-58.069-26.06-92.162-54.181-121.182c23.577-26.07,44.504-58.454,44.504-110.923    C447.233,9.876,437.357,0,425.217,0c-11.893,0-21.607,9.481-21.997,21.281h-62.455C340.375,9.481,330.661,0,318.768,0    c-12.14,0-22.016,9.876-22.016,22.016c0,52.445,21.751,85.628,44.513,110.901c-27.206,27.947-54.19,61.624-54.19,121.204    c0,59.579,26.983,93.257,54.19,121.204c-22.762,25.272-44.513,58.456-44.513,110.901c0,12.139,9.876,22.016,22.016,22.016    s22.016-9.876,22.016-22.016c0-14.561,2.005-26.851,5.717-37.808h50.992c1.75,5.198,3.144,10.726,4.109,16.703h-35.569    c-4.142,0-7.5,3.358-7.5,7.5s3.358,7.5,7.5,7.5h37.032c0.082,1.995,0.138,4.018,0.138,6.105c0,12.139,9.876,22.016,22.016,22.016    s22.016-9.876,22.016-22.016c0-52.469-20.927-84.853-44.504-110.923C430.85,346.282,456.911,312.189,456.911,254.12z     M441.911,254.12c0,52.376-22.81,82.689-49.486,110.267c-3.251-3.329-6.502-6.583-9.708-9.787    c-0.056-0.056-0.112-0.112-0.168-0.168c26.042-26.837,45.331-52.744,45.331-100.312c0-47.567-19.288-73.474-45.33-100.311    c0.056-0.056,0.112-0.112,0.168-0.168c3.206-3.204,6.457-6.458,9.708-9.787C419.1,171.432,441.911,201.744,441.911,254.12z     M333.973,226.498h49.624c4.142,0,7.5-3.358,7.5-7.5s-3.358-7.5-7.5-7.5h-45.034c2.359-5.958,5.227-11.468,8.504-16.703h49.829    c8.49,13.525,14.075,28.713,15.569,48.406h-80.94C331.981,237.246,332.807,231.7,333.973,226.498z M371.988,164.466    c4.989,5.144,9.654,10.192,13.923,15.329h-27.883C362.335,174.618,367.024,169.574,371.988,164.466z M412.824,258.2    c-0.158,5.946-0.674,11.484-1.5,16.703h-78.664c-0.826-5.214-1.335-10.761-1.494-16.703H412.824z M407.839,289.903    c-1.866,5.954-4.217,11.474-6.99,16.703h-57.732c-2.753-5.21-5.107-10.728-6.975-16.703H407.839z M391.308,321.606    c-5.617,7.562-12.138,14.763-19.32,22.169c-7.12-7.326-13.663-14.523-19.338-22.169H391.308z M372.008,101.301    c-9.374-10.598-16.974-21.206-22.326-33.318h44.664C388.867,80.456,381.141,91.022,372.008,101.301z M399.525,52.983h-55.063    c-1.362-5.226-2.364-10.764-2.973-16.703h60.997C401.874,42.243,400.873,47.784,399.525,52.983z M318.768,15    c3.869,0,7.016,3.147,7.016,7.016c0,17.763,2.738,32.641,7.648,45.808v0.16h0.062c6.271,16.737,16.059,30.709,28.219,44.31    c-3.188,3.269-6.487,6.57-9.871,9.951c-21.436-23.908-40.089-53.208-40.089-100.23C311.752,18.147,314.899,15,318.768,15z     M325.784,486.225c0,3.868-3.147,7.016-7.016,7.016s-7.016-3.147-7.016-7.016c0-47.021,18.653-76.321,40.089-100.23    c3.384,3.382,6.682,6.682,9.871,9.952C339.958,420.281,325.784,445.785,325.784,486.225z M353.017,433.417    c5.007-9.356,11.422-17.92,18.991-26.477c7.415,8.346,13.897,16.887,19.008,26.477H353.017z M425.217,493.241    c-3.868,0-7.016-3.147-7.016-7.016c0-4.356-0.188-8.518-0.515-12.54c0.05-0.349,0.084-0.703,0.084-1.065    c0-0.847-0.147-1.659-0.406-2.418c-4.748-44.649-29.308-69.221-55.172-95.068c-28.179-28.162-60.118-60.081-60.118-121.013    s31.939-92.852,60.12-121.015c28.802-28.784,56.007-55.971,56.007-111.09c0-3.868,3.147-7.016,7.016-7.016    c3.869,0,7.016,3.147,7.016,7.016c0,60.934-31.94,92.853-60.12,121.015c-28.802,28.784-56.007,55.971-56.007,111.09    s27.205,82.306,56.007,111.09c28.18,28.162,60.12,60.081,60.12,121.015C432.233,490.094,429.086,493.241,425.217,493.241z"/>
	</g>
</g>















</svg>
