<svg height="511pt" viewBox="-85 1 511 511.99999" width="511pt" xmlns="http://www.w3.org/2000/svg"><path d="m191.195312 157.492188c4.164063-3.664063 6.804688-9.019532 6.804688-15 0-6.550782-3.164062-12.34375-8.027344-15.992188 1.890625-2.511719 3.027344-5.625 3.027344-9.007812 0-3.980469-1.5625-7.589844-4.089844-10.273438l-38.125-40.554688h-32.785156v125.828126h60c11.046875 0 20-8.953126 20-20 0-5.980469-2.640625-11.335938-6.804688-15zm0 0" fill="#b3b3b3"/><path d="m85.214844 66.664062-38.125 40.554688c-2.527344 2.683594-4.089844 6.292969-4.089844 10.273438 0 3.382812 1.136719 6.496093 3.027344 9.007812-4.867188 3.648438-8.027344 9.445312-8.027344 15.992188 0 5.980468 2.640625 11.335937 6.804688 15-4.164063 3.664062-6.804688 9.015624-6.804688 15 0 11.046874 8.953125 20 20 20h60v-125.828126zm0 0" fill="#ccc"/><path d="m146.28125 62.5h-28.28125v79.992188c24.851562 0 45-20.148438 45-45 0-14.136719-6.523438-26.742188-16.71875-34.992188zm0 0" fill="#ffb4a9"/><path d="m131.699219 79.175781-41.984375-16.675781c-10.191406 8.25-16.714844 20.855469-16.714844 34.992188 0 24.851562 20.148438 45 45 45 8.285156 0 15-20.148438 15-45 0-6.523438-.46875-12.71875-1.300781-18.316407zm0 0" fill="#ffd9d4"/><path d="m118 52.492188v26.683593h13.699219c6.753906-3.472656 12.019531-9.433593 14.585937-16.675781-7.730468-6.253906-17.566406-10.007812-28.285156-10.007812zm0 0" fill="#b3b3b3"/><path d="m118 52.492188c-10.71875 0-20.554688 3.753906-28.285156 10.007812 4.121094 11.644531 15.226562 19.992188 28.285156 19.992188 4.9375 0 9.59375-1.199219 13.699219-3.316407-2.335938-15.71875-7.589844-26.683593-13.699219-26.683593zm0 0" fill="#ccc"/><path d="m118 412.5h30l15-15v-90h-75zm0 0" fill="#cf301b"/><path d="m118 412.5h-30l-15-15v-90h45zm0 0" fill="#ff4128"/><path d="m103 247.5 15 90c24.851562 0 45-20.148438 45-45zm0 0" fill="#353535"/><path d="m73 292.5c0 24.851562 20.148438 45 45 45v-90zm0 0" fill="#4f4f4f"/><path d="m148 172.5h-30l-30 44.992188 30 75.007812h45zm0 0" fill="#4f4f4f"/><path d="m88 172.5-15 120 45-.011719v-119.988281zm0 0" fill="#696969"/><path d="m148 172.5c0-16.570312-13.433594-30-30-30l-15 37.503906 15 32.496094h45zm0 0" fill="#ebebeb"/><path d="m88 172.5-15 40h45v-70c-16.570312 0-30 13.429688-30 30zm0 0" fill="#fff"/><path d="m58.003906 192.5-.003906 220h30v-240h-9.996094c-11.042968 0-20 8.953125-20 20zm0 0" fill="#ff6753"/><path d="m158 172.5h-10v240h30v-220c0-11.046875-8.953125-20-20-20zm0 0" fill="#ff6753"/><path d="m310.5 157.5c-3.59375 0-6.988281.84375-10 2.34375l-5 57.65625c20.710938 0 37.5-16.789062 37.5-37.5 0-12.425781-10.074219-22.5-22.5-22.5zm0 0" fill="#cf301b"/><path d="m303 180c0-8.835938-1.019531-16.476562-2.5-20.15625-1.820312.902344-3.5 2.046875-5 3.390625-3.980469-3.566406-9.238281-5.734375-15-5.734375-12.425781 0-22.5 10.074219-22.5 22.5 0 20.710938 16.789062 37.5 37.5 37.5 4.140625 0 7.5-16.789062 7.5-37.5zm0 0" fill="#ff4128"/><path d="m199.753906 189.285156c3.597656-4.648437 5.746094-10.472656 5.746094-16.792968 0-5.371094-1.582031-10.574219-4.472656-15 2.890625-4.425782 4.472656-9.628907 4.472656-15 0-6.507813-2.238281-12.625-6.289062-17.492188.851562-2.390625 1.289062-4.917969 1.289062-7.507812 0-5.742188-2.179688-11.21875-6.125-15.410157l-38.128906-40.554687c-9.609375-10.15625-23.195313-16.535156-38.246094-16.535156-15.054688 0-28.636719 6.378906-38.21875 16.5625-.027344-.027344-38.152344 40.519531-38.152344 40.519531-3.949218 4.199219-6.128906 9.671875-6.128906 15.417969 0 2.589843.4375 5.117187 1.285156 7.507812-4.046875 4.867188-6.285156 10.984375-6.285156 17.492188 0 5.371093 1.582031 10.574218 4.472656 15-2.890625 4.425781-4.472656 9.628906-4.472656 15 0 6.320312 2.148438 12.144531 5.746094 16.792968-20.949219 8.59375-35.746094 29.203125-35.746094 53.214844 0 29.160156 21.828125 53.304688 50 56.992188v113.007812c0 4.140625 3.355469 7.5 7.5 7.5h22.5v69.09375l-24.871094 8.289062c-3.929687 1.308594-6.054687 5.558594-4.742187 9.488282 1.308593 3.929687 5.554687 6.050781 9.484375 4.742187l30-10c3.0625-1.019531 5.128906-3.886719 5.128906-7.113281v-74.5h45v74.5c0 3.226562 2.0625 6.09375 5.128906 7.113281l30 10c.785156.261719 1.585938.386719 2.371094.386719 3.140625 0 6.066406-1.988281 7.113281-5.128906 1.3125-3.929688-.8125-8.179688-4.742187-9.488282l-24.871094-8.289062v-69.09375h22.5c4.140625 0 7.5-3.359375 7.5-7.5v-113.007812c28.171875-3.6875 50-27.832032 50-56.992188 0-24.011719-14.796875-44.617188-35.746094-53.214844zm-14.253906-71.792968c0 2.050781-.824219 3.574218-1.515625 4.492187-1.199219 1.59375-1.71875 3.59375-1.4375 5.566406.277344 1.972657 1.332031 3.753907 2.925781 4.949219 3.195313 2.394531 5.027344 6.035156 5.027344 9.992188 0 3.570312-1.554688 6.984374-4.257812 9.371093-1.617188 1.421875-2.546876 3.472657-2.546876 5.628907 0 2.152343.929688 4.203124 2.546876 5.628906 2.703124 2.382812 4.257812 5.796875 4.257812 9.371094 0 4.730468-2.644531 8.855468-6.53125 10.976562-3.746094-10.738281-13.96875-18.46875-25.96875-18.46875h-3.257812c-1.699219-8.339844-6.179688-15.675781-12.417969-21.007812 16.433593-8.632813 27.75-25.710938 28.148437-45.4375l12.976563 13.804687c1.320312 1.40625 2.050781 3.226563 2.050781 5.132813zm-97.484375-42.492188c6.960937 9.253906 18 14.992188 29.984375 14.992188s23.023438-5.738282 29.984375-14.992188c4.714844 6.269531 7.515625 14.058594 7.515625 22.492188 0 20.675781-16.824219 37.5-37.5 37.5-20.679688 0-37.5-16.824219-37.5-37.5 0-8.433594 2.796875-16.222657 7.515625-22.492188zm29.984375 75c12.40625 0 22.5 10.09375 22.5 22.5v32.5h-15v-32.5c0-4.144531-3.359375-7.5-7.5-7.5-4.144531 0-7.5 3.355469-7.5 7.5v32.5h-15v-32.5c0-12.40625 10.09375-22.5 22.5-22.5zm-22.5 70h45v65h-45zm0 80h45v22.488281c-6.46875 4.863281-14.34375 7.511719-22.5 7.511719s-16.03125-2.652344-22.5-7.511719zm41.1875-235c-4.113281 6.132812-11.078125 9.992188-18.6875 9.992188s-14.578125-3.859376-18.6875-9.992188c5.503906-3.179688 11.886719-5.007812 18.6875-5.007812s13.179688 1.828124 18.6875 5.007812zm-86.929688 86.863281c-2.707031-2.382812-4.257812-5.800781-4.257812-9.371093 0-3.953126 1.832031-7.597657 5.027344-9.992188 1.59375-1.195312 2.644531-2.976562 2.925781-4.949219.277344-1.972656-.238281-3.972656-1.4375-5.566406-.691406-.914063-1.515625-2.441406-1.515625-4.492187 0-1.90625.726562-3.726563 2.054688-5.132813l12.972656-13.800781c.394531 19.722656 11.710937 36.804687 28.144531 45.4375-6.238281 5.332031-10.71875 12.664062-12.417969 21.003906h-3.253906c-12.003906 0-22.226562 7.730469-25.972656 18.472656-3.886719-2.125-6.527344-6.25-6.527344-10.980468 0-3.570313 1.550781-6.988282 4.257812-9.371094 1.617188-1.421875 2.542969-3.476563 2.542969-5.628906 0-2.152344-.925781-4.207032-2.542969-5.628907zm-34.257812 90.636719c0-20.875 15.132812-38.269531 35-41.824219v83.648438c-19.867188-3.554688-35-20.949219-35-41.824219zm50 162.5v-212.5c0-6.894531 5.605469-12.5 12.5-12.5h2.5v225zm30 0v-65.078125c6.972656 3.3125 14.640625 5.078125 22.5 5.078125s15.527344-1.765625 22.5-5.078125v65.078125zm75 0h-15v-225h2.5c6.890625 0 12.5 5.605469 12.5 12.5zm15-120.675781v-83.648438c19.867188 3.554688 35 20.949219 35 41.824219s-15.132812 38.269531-35 41.824219zm0 0"/><path d="m310.5 150c-2.554688 0-5.070312.332031-7.5.957031v-8.457031c0-4.144531-3.359375-7.5-7.5-7.5-4.144531 0-7.5 3.355469-7.5 7.5v8.457031c-2.429688-.625-4.949219-.957031-7.5-.957031-16.542969 0-30 13.457031-30 30 0 24.8125 20.1875 45 45 45s45-20.1875 45-45c0-16.542969-13.460938-30-30-30zm-15 60c-16.542969 0-30-13.457031-30-30 0-8.273438 6.726562-15 15-15 3.691406 0 7.242188 1.355469 9.996094 3.820312.039062.035157.078125.0625.117187.097657.089844.078125.183594.148437.277344.222656s.1875.144531.285156.214844c.097657.066406.195313.132812.296875.195312.097656.066407.199219.125.300782.183594.101562.058594.207031.117187.3125.171875.105468.050781.207031.101562.3125.148438.113281.050781.222656.101562.335937.144531.105469.042969.210937.082031.320313.117187.113281.039063.230468.078125.347656.113282.113281.03125.226562.058593.34375.085937.113281.027344.222656.054687.339844.078125.132812.027344.269531.042969.40625.0625.097656.011719.195312.027344.292968.039062.234375.023438.472656.035157.710938.035157.242187 0 .484375-.011719.722656-.035157.089844-.011718.179688-.027343.269531-.039062.144531-.019531.289063-.035156.429688-.066406.109375-.019532.210937-.046875.316406-.070313.125-.03125.25-.058593.371094-.09375.109375-.035156.214843-.070312.320312-.105469.117188-.039062.234375-.082031.351563-.128906.101562-.042968.203125-.085937.304687-.132812.113281-.050782.226563-.101563.339844-.160156.097656-.050782.195313-.105469.289063-.160157.109374-.0625.21875-.125.324218-.195312.09375-.058594.1875-.121094.277344-.1875.101562-.070313.199219-.144531.296875-.21875.089844-.074219.179687-.144531.269531-.21875.039063-.035157.082032-.066407.121094-.097657 2.753906-2.464843 6.304688-3.824218 9.996094-3.824218 8.273437 0 15 6.730468 15 15 .003906 16.546875-13.457032 30.003906-29.996094 30.003906zm0 0"/><g fill="#7dd9ff"><path d="m295.5 120c-4.144531 0-7.5-3.359375-7.5-7.5v-15c0-4.144531 3.355469-7.5 7.5-7.5 4.140625 0 7.5 3.355469 7.5 7.5v15c0 4.140625-3.359375 7.5-7.5 7.5zm0 0"/><path d="m295.5 30c-4.144531 0-7.5-3.355469-7.5-7.5v-15c0-4.144531 3.355469-7.5 7.5-7.5 4.140625 0 7.5 3.355469 7.5 7.5v15c0 4.144531-3.359375 7.5-7.5 7.5zm0 0"/><path d="m295.5 75c-4.144531 0-7.5-3.355469-7.5-7.5v-15c0-4.144531 3.355469-7.5 7.5-7.5 4.140625 0 7.5 3.355469 7.5 7.5v15c0 4.144531-3.359375 7.5-7.5 7.5zm0 0"/></g></svg>