<svg height="512pt" viewBox="0 0 512 512" width="512pt" xmlns="http://www.w3.org/2000/svg"><path d="m422.820312 226.863281-26.632812-7.609375c-3.328125-12.769531-8.398438-25.023437-15.066406-36.414062l13.441406-24.199219c3.703125-6.660156 2.539062-14.96875-2.851562-20.355469l-17.996094-17.996094c-5.386719-5.390624-13.695313-6.554687-20.355469-2.851562l-24.199219 13.441406c-11.390625-6.667968-23.640625-11.738281-36.414062-15.066406l-7.609375-26.632812c-2.09375-7.328126-8.789063-12.378907-16.410157-12.378907h-25.453124c-7.621094 0-14.316407 5.050781-16.410157 12.378907l-7.609375 26.632812c-12.773437 3.328125-25.023437 8.398438-36.414062 15.066406l-24.199219-13.441406c-6.660156-3.703125-14.96875-2.539062-20.355469 2.851562l-17.996094 17.996094c-5.390624 5.386719-6.554687 13.695313-2.851562 20.355469l13.441406 24.199219c-6.667968 11.390625-11.738281 23.644531-15.066406 36.414062l-26.632812 7.609375c-7.328126 2.09375-12.378907 8.789063-12.378907 16.410157v25.453124c0 7.621094 5.050781 14.316407 12.378907 16.410157l26.632812 7.609375c3.328125 12.769531 8.398438 25.023437 15.066406 36.414062l-13.441406 24.199219c-3.703125 6.660156-2.539062 14.96875 2.851562 20.355469l17.996094 17.996094c5.386719 5.390624 13.695313 6.554687 20.355469 2.851562l24.199219-13.441406c11.390625 6.667968 23.640625 11.738281 36.414062 15.066406l7.609375 26.632812c2.09375 7.328126 8.789063 12.378907 16.410157 12.378907h25.453124c7.621094 0 14.316407-5.050781 16.410157-12.378907l7.609375-26.632812c12.773437-3.328125 25.023437-8.398438 36.414062-15.066406l24.199219 13.441406c6.660156 3.703125 14.96875 2.539062 20.355469-2.851562l17.996094-17.996094c5.390624-5.386719 6.554687-13.695313 2.851562-20.355469l-13.441406-24.199219c6.667968-11.390625 11.738281-23.644531 15.066406-36.414062l26.632812-7.609375c7.328126-2.09375 12.378907-8.789063 12.378907-16.410157v-25.453124c0-7.621094-5.050781-14.316407-12.378907-16.410157zm0 0" fill="#00bcd4"/><path d="m401.066406 256c.003906 38.476562-15.277344 75.375-42.484375 102.582031s-64.105469 42.488281-102.582031 42.484375c-4.273438.019532-8.546875-.179687-12.800781-.597656-74.859375-6.617188-132.261719-69.316406-132.261719-144.46875s57.402344-137.851562 132.261719-144.46875c4.253906-.417969 8.527343-.617188 12.800781-.597656 38.476562-.003906 75.375 15.277344 102.582031 42.484375s42.488281 64.105469 42.484375 102.582031zm0 0" fill="#283593"/><path d="m375.464844 256c0-79.789062-59.214844-144.46875-132.265625-144.46875-73.046875 0-132.265625 64.679688-132.265625 144.46875s59.21875 144.46875 132.265625 144.46875c73.050781 0 132.265625-64.679688 132.265625-144.46875zm0 0" fill="#3f51b5"/><path d="m366.933594 256c0 61.265625-49.667969 110.933594-110.933594 110.933594-4.277344.003906-8.554688-.253906-12.800781-.769532-55.933594-6.480468-98.136719-53.851562-98.136719-110.164062s42.203125-103.683594 98.136719-110.164062c4.246093-.515626 8.523437-.773438 12.800781-.769532 29.421875 0 57.636719 11.6875 78.441406 32.492188 20.804688 20.804687 32.492188 49.019531 32.492188 78.441406zm0 0" fill="#00838f"/><path d="m341.332031 256c0-60.84375-43.933593-110.164062-98.132812-110.164062-54.195313 0-98.132813 49.320312-98.132813 110.164062s43.9375 110.164062 98.132813 110.164062c54.199219 0 98.132812-49.320312 98.132812-110.164062zm0 0" fill="#00bcd4"/><path d="m281.601562 256c.007813 10.367188-6.230468 19.71875-15.808593 23.691406-9.574219 3.96875-20.601563 1.777344-27.933594-5.550781-7.328125-7.332031-9.519531-18.359375-5.550781-27.933594 3.972656-9.578125 13.324218-15.816406 23.691406-15.808593 6.792969-.007813 13.308594 2.6875 18.113281 7.488281 4.800781 4.804687 7.496094 11.320312 7.488281 18.113281zm0 0" fill="#283593"/><path d="m256 256c.011719 9.152344-4.871094 17.617188-12.800781 22.1875-7.921875-4.582031-12.800781-13.039062-12.800781-22.1875s4.878906-17.605469 12.800781-22.1875c7.929687 4.570312 12.8125 13.035156 12.800781 22.1875zm0 0" fill="#3f51b5"/><path d="m59.734375 34.132812c.007813 10.367188-6.230469 19.71875-15.808594 23.691407-9.574219 3.96875-20.601562 1.78125-27.933593-5.550781-7.328126-7.332032-9.519532-18.355469-5.546876-27.933594 3.96875-9.574219 13.320313-15.816406 23.6875-15.804688 6.792969-.011718 13.308594 2.683594 18.113282 7.484375 4.800781 4.804688 7.496094 11.320313 7.488281 18.113281zm0 0" fill="#00838f"/><path d="m170.667969 25.601562c0 9.425782-7.640625 17.066407-17.066407 17.066407-9.425781 0-17.066406-7.640625-17.066406-17.066407 0-9.425781 7.640625-17.066406 17.066406-17.066406 9.425782 0 17.066407 7.640625 17.066407 17.066406zm0 0" fill="#a4c400"/><path d="m42.667969 196.265625c0 9.425781-7.640625 17.066406-17.066407 17.066406-9.425781 0-17.066406-7.640625-17.066406-17.066406s7.640625-17.066406 17.066406-17.066406c9.425782 0 17.066407 7.640625 17.066407 17.066406zm0 0" fill="#009688"/><path d="m503.464844 34.132812c.011718 10.367188-6.230469 19.71875-15.804688 23.691407-9.578125 3.96875-20.601562 1.78125-27.933594-5.550781-7.332031-7.332032-9.519531-18.355469-5.550781-27.933594 3.972657-9.574219 13.324219-15.816406 23.691407-15.804688 6.792968-.011718 13.308593 2.683594 18.113281 7.484375 4.800781 4.804688 7.496093 11.320313 7.484375 18.113281zm0 0" fill="#00838f"/><path d="m375.464844 25.601562c0 9.425782-7.640625 17.066407-17.066406 17.066407-9.425782 0-17.066407-7.640625-17.066407-17.066407 0-9.425781 7.640625-17.066406 17.066407-17.066406 9.425781 0 17.066406 7.640625 17.066406 17.066406zm0 0" fill="#009688"/><path d="m503.464844 196.265625c0 9.425781-7.640625 17.066406-17.066406 17.066406-9.425782 0-17.066407-7.640625-17.066407-17.066406s7.640625-17.066406 17.066407-17.066406c9.425781 0 17.066406 7.640625 17.066406 17.066406zm0 0" fill="#a4c400"/><path d="m59.734375 477.867188c.007813 10.367187-6.230469 19.71875-15.808594 23.6875-9.574219 3.972656-20.601562 1.78125-27.933593-5.546876-7.328126-7.332031-9.519532-18.359374-5.546876-27.933593 3.96875-9.578125 13.320313-15.816407 23.6875-15.808594 6.792969-.007813 13.308594 2.6875 18.113282 7.488281 4.800781 4.804688 7.496094 11.320313 7.488281 18.113282zm0 0" fill="#00838f"/><path d="m170.667969 486.398438c0 9.425781-7.640625 17.066406-17.066407 17.066406-9.425781 0-17.066406-7.640625-17.066406-17.066406 0-9.425782 7.640625-17.066407 17.066406-17.066407 9.425782 0 17.066407 7.640625 17.066407 17.066407zm0 0" fill="#009688"/><path d="m42.667969 315.734375c0 9.425781-7.640625 17.066406-17.066407 17.066406-9.425781 0-17.066406-7.640625-17.066406-17.066406s7.640625-17.066406 17.066406-17.066406c9.425782 0 17.066407 7.640625 17.066407 17.066406zm0 0" fill="#a4c400"/><path d="m503.464844 477.867188c.011718 10.367187-6.230469 19.71875-15.804688 23.6875-9.578125 3.972656-20.601562 1.78125-27.933594-5.546876-7.332031-7.332031-9.519531-18.359374-5.550781-27.933593 3.972657-9.578125 13.324219-15.816407 23.691407-15.808594 6.792968-.007813 13.308593 2.6875 18.113281 7.488281 4.800781 4.804688 7.496093 11.320313 7.484375 18.113282zm0 0" fill="#00838f"/><g fill="#00bcd4"><path d="m34.132812 34.132812c.011719 9.152344-4.867187 17.617188-12.800781 22.1875-7.921875-4.582031-12.800781-13.035156-12.800781-22.1875 0-9.148437 4.878906-17.605468 12.800781-22.1875 7.933594 4.574219 12.8125 13.035157 12.800781 22.1875zm0 0"/><path d="m477.867188 34.132812c.011718 9.152344-4.871094 17.617188-12.800782 22.1875-7.921875-4.582031-12.800781-13.035156-12.800781-22.1875 0-9.148437 4.878906-17.605468 12.800781-22.1875 7.929688 4.574219 12.8125 13.035157 12.800782 22.1875zm0 0"/><path d="m34.132812 477.867188c.011719 9.152343-4.867187 17.613281-12.800781 22.1875-7.921875-4.582032-12.800781-13.039063-12.800781-22.1875 0-9.152344 4.878906-17.605469 12.800781-22.1875 7.933594 4.570312 12.8125 13.035156 12.800781 22.1875zm0 0"/><path d="m477.867188 477.867188c.011718 9.152343-4.871094 17.613281-12.800782 22.1875-7.921875-4.582032-12.800781-13.039063-12.800781-22.1875 0-9.152344 4.878906-17.605469 12.800781-22.1875 7.929688 4.570312 12.8125 13.035156 12.800782 22.1875zm0 0"/></g><path d="m375.464844 486.398438c0 9.425781-7.640625 17.066406-17.066406 17.066406-9.425782 0-17.066407-7.640625-17.066407-17.066406 0-9.425782 7.640625-17.066407 17.066407-17.066407 9.425781 0 17.066406 7.640625 17.066406 17.066407zm0 0" fill="#a4c400"/><path d="m503.464844 315.734375c0 9.425781-7.640625 17.066406-17.066406 17.066406-9.425782 0-17.066407-7.640625-17.066407-17.066406s7.640625-17.066406 17.066407-17.066406c9.425781 0 17.066406 7.640625 17.066406 17.066406zm0 0" fill="#009688"/><path d="m256 375.464844c-65.980469 0-119.464844-53.484375-119.464844-119.464844s53.484375-119.464844 119.464844-119.464844 119.464844 53.484375 119.464844 119.464844c-.074219 65.949219-53.515625 119.390625-119.464844 119.464844zm0-221.863282c-56.554688 0-102.398438 45.84375-102.398438 102.398438s45.84375 102.398438 102.398438 102.398438 102.398438-45.84375 102.398438-102.398438c-.0625-56.527344-45.871094-102.335938-102.398438-102.398438zm0 0"/><path d="m256 290.132812c-18.851562 0-34.132812-15.28125-34.132812-34.132812s15.28125-34.132812 34.132812-34.132812 34.132812 15.28125 34.132812 34.132812c-.019531 18.84375-15.289062 34.113281-34.132812 34.132812zm0-51.199218c-9.425781 0-17.066406 7.640625-17.066406 17.066406s7.640625 17.066406 17.066406 17.066406 17.066406-7.640625 17.066406-17.066406c-.011718-9.421875-7.644531-17.054688-17.066406-17.066406zm0 0"/><path d="m268.726562 443.734375h-25.453124c-11.417969-.039063-21.445313-7.601563-24.617188-18.570313l-6.296875-22.039062c-10.25-3.03125-20.15625-7.128906-29.550781-12.226562l-20.023438 11.121093c-9.996094 5.523438-22.4375 3.785157-30.535156-4.269531l-18-18c-8.042969-8.101562-9.78125-20.535156-4.273438-30.535156l11.125-20.027344c-5.09375-9.394531-9.191406-19.296875-12.226562-29.546875l-22.042969-6.296875c-10.964843-3.175781-18.527343-13.199219-18.566406-24.617188v-25.453124c.039063-11.414063 7.59375-21.4375 18.558594-24.617188l22.058593-6.292969c3.027344-10.25 7.121094-20.15625 12.21875-29.550781l-11.125-20.023438c-5.507812-10-3.769531-22.429687 4.265626-30.535156l18.003906-18c8.097656-8.050781 20.539062-9.792968 30.535156-4.273437l20.023438 11.121093c9.398437-5.097656 19.300781-9.195312 29.550781-12.226562l6.300781-22.042969c3.171875-10.96875 13.199219-18.53125 24.617188-18.566406h25.453124c11.417969.039063 21.445313 7.601563 24.617188 18.570313l6.296875 22.039062c10.25 3.03125 20.15625 7.128906 29.550781 12.226562l20.023438-11.121093c10-5.515625 22.433594-3.773438 30.535156 4.269531l18 18c8.042969 8.101562 9.78125 20.535156 4.273438 30.535156l-11.125 20.027344c5.097656 9.394531 9.191406 19.300781 12.214843 29.550781l22.050781 6.292969h.007813c10.964844 3.179688 18.523437 13.203125 18.5625 24.617188v25.453124c-.039063 11.414063-7.59375 21.4375-18.558594 24.617188l-22.050781 6.296875c-3.035156 10.25-7.132812 20.152344-12.226562 29.546875l11.125 20.023438c5.507812 10 3.769531 22.429687-4.265626 30.535156l-18.003906 18c-8.097656 8.054687-20.539062 9.796875-30.535156 4.273437l-20.023438-11.121093c-9.398437 5.097656-19.300781 9.195312-29.550781 12.226562l-6.300781 22.042969c-3.171875 10.96875-13.199219 18.53125-24.617188 18.566406zm-85.882812-71.148437c1.515625.003906 3.003906.40625 4.3125 1.171874 10.714844 6.273438 22.238281 11.042969 34.253906 14.175782 2.917969.761718 5.214844 3.007812 6.046875 5.90625l7.617188 26.636718c1.050781 3.65625 4.394531 6.179688 8.199219 6.191407h25.453124c3.804688-.011719 7.144532-2.53125 8.199219-6.1875l7.617188-26.640625c.832031-2.898438 3.128906-5.144532 6.046875-5.90625 12.015625-3.132813 23.539062-7.902344 34.253906-14.171875 2.601562-1.53125 5.820312-1.566407 8.457031-.097657l24.199219 13.441407c3.335938 1.835937 7.484375 1.253906 10.183594-1.429688l18-17.992187c2.679687-2.703125 3.261718-6.847656 1.425781-10.183594l-13.449219-24.195312c-1.472656-2.636719-1.433594-5.855469.097656-8.457032 6.265626-10.71875 11.035157-22.25 14.175782-34.261718.769531-2.917969 3.015625-5.214844 5.917968-6.042969l26.632813-7.609375c3.65625-1.058594 6.171875-4.402344 6.183594-8.207032v-25.453124c-.015625-3.804688-2.53125-7.144532-6.183594-8.207032l-26.644531-7.609375c-2.898438-.828125-5.148438-3.125-5.914063-6.042969-3.132812-12.015624-7.898437-23.542968-14.164062-34.261718-1.53125-2.601563-1.570313-5.820313-.101563-8.457032l13.449219-24.199218c1.835937-3.335938 1.253906-7.484375-1.433594-10.183594l-17.992187-17.992188c-2.699219-2.683593-6.847656-3.261718-10.183594-1.425781l-24.199219 13.441407c-2.636719 1.464843-5.851562 1.425781-8.457031-.09375-10.714844-6.273438-22.238281-11.042969-34.25-14.175782-2.917969-.761718-5.21875-3.007812-6.050781-5.90625l-7.617188-26.636718c-1.050781-3.65625-4.394531-6.179688-8.199219-6.191407h-25.453124c-3.804688.011719-7.144532 2.53125-8.199219 6.1875l-7.617188 26.640625c-.832031 2.898438-3.128906 5.144532-6.046875 5.90625-12.015625 3.132813-23.539062 7.902344-34.253906 14.171875-2.601562 1.523438-5.816406 1.558594-8.457031.097657l-24.199219-13.441407c-3.335938-1.839843-7.484375-1.257812-10.183594 1.429688l-18 17.992187c-2.679687 2.703125-3.261718 6.847656-1.425781 10.183594l13.449219 24.195312c1.472656 2.636719 1.433594 5.855469-.097656 8.457032-6.265626 10.71875-11.035157 22.246094-14.164063 34.257812-.769531 2.917969-3.015625 5.21875-5.917969 6.046875l-26.640625 7.609375c-3.65625 1.058594-6.175781 4.402344-6.1875 8.207032v25.453124c.011719 3.804688 2.535157 7.152344 6.191407 8.207032l26.625 7.609375c2.902343.828125 5.148437 3.125 5.917968 6.039062 3.136719 12.015625 7.90625 23.542969 14.171875 34.265625 1.53125 2.601563 1.570313 5.820313.101563 8.457032l-13.449219 24.199218c-1.835937 3.335938-1.25 7.484375 1.433594 10.183594l17.992187 17.992188c2.703125 2.679687 6.847656 3.257812 10.183594 1.425781l24.199219-13.441407c1.269531-.707031 2.691406-1.074218 4.144531-1.078124zm0 0"/><path d="m256 409.601562c-84.832031 0-153.601562-68.769531-153.601562-153.601562s68.769531-153.601562 153.601562-153.601562 153.601562 68.769531 153.601562 153.601562c-.097656 84.789062-68.8125 153.503906-153.601562 153.601562zm0-290.136718c-75.40625 0-136.535156 61.128906-136.535156 136.535156s61.128906 136.535156 136.535156 136.535156 136.535156-61.128906 136.535156-136.535156c-.085937-75.371094-61.164062-136.449219-136.535156-136.535156zm0 0"/><path d="m34.132812 68.265625c-18.851562 0-34.132812-15.28125-34.132812-34.132813 0-18.851562 15.28125-34.132812 34.132812-34.132812 18.851563 0 34.132813 15.28125 34.132813 34.132812-.019531 18.84375-15.289063 34.113282-34.132813 34.132813zm0-51.199219c-9.425781 0-17.066406 7.640625-17.066406 17.066406 0 9.425782 7.640625 17.066407 17.066406 17.066407 9.425782 0 17.066407-7.640625 17.066407-17.066407-.011719-9.421874-7.644531-17.054687-17.066407-17.066406zm0 0"/><path d="m153.601562 51.199219c-14.140624 0-25.601562-11.460938-25.601562-25.597657 0-14.140624 11.460938-25.601562 25.601562-25.601562 14.136719 0 25.597657 11.460938 25.597657 25.601562-.015625 14.128907-11.46875 25.582032-25.597657 25.597657zm0-34.132813c-4.714843 0-8.535156 3.820313-8.535156 8.535156 0 4.710938 3.820313 8.53125 8.535156 8.53125 4.710938 0 8.53125-3.820312 8.53125-8.53125-.003906-4.710937-3.820312-8.53125-8.53125-8.535156zm0 0"/><path d="m25.601562 221.867188c-14.140624 0-25.601562-11.460938-25.601562-25.601563 0-14.136719 11.460938-25.597656 25.601562-25.597656 14.136719 0 25.597657 11.460937 25.597657 25.597656-.015625 14.132813-11.46875 25.585937-25.597657 25.601563zm0-34.132813c-4.714843 0-8.535156 3.820313-8.535156 8.53125 0 4.714844 3.820313 8.535156 8.535156 8.535156 4.710938 0 8.53125-3.820312 8.53125-8.535156-.003906-4.710937-3.820312-8.527344-8.53125-8.53125zm0 0"/><path d="m93.867188 136.535156h-18.535157c-6.792969.015625-13.308593-2.683594-18.097656-7.5l-24.132813-24.136718c-4.820312-4.789063-7.519531-11.308594-7.5-18.101563v-27.0625c0-4.714844 3.820313-8.535156 8.53125-8.535156 4.714844 0 8.535157 3.820312 8.535157 8.535156v27.0625c-.003907 2.265625.894531 4.4375 2.5 6.035156l24.132812 24.132813c1.605469 1.59375 3.769531 2.492187 6.03125 2.5h18.535157c4.710937 0 8.53125 3.824218 8.53125 8.535156s-3.820313 8.535156-8.53125 8.535156zm0 0"/><path d="m128 102.398438c-4.710938 0-8.535156-3.820313-8.535156-8.53125v-12.800782c.015625-11.777344 9.558594-21.320312 21.335937-21.332031 2.355469-.003906 4.261719-1.914063 4.265625-4.269531v-12.796875c0-4.714844 3.820313-8.535157 8.535156-8.535157 4.710938 0 8.53125 3.820313 8.53125 8.535157v12.796875c-.011718 11.777344-9.554687 21.324218-21.332031 21.335937-2.355469.003907-4.265625 1.910157-4.265625 4.265625v12.800782c0 4.710937-3.824218 8.53125-8.535156 8.53125zm0 0"/><path d="m59.734375 204.800781h-17.066406c-4.714844 0-8.535157-3.820312-8.535157-8.535156 0-4.710937 3.820313-8.53125 8.535157-8.53125h17.066406v-17.066406c.011719-9.421875 7.644531-17.058594 17.066406-17.066407h17.066407c4.710937 0 8.53125 3.820313 8.53125 8.53125 0 4.714844-3.820313 8.535157-8.53125 8.535157h-17.066407v17.066406c-.011719 9.421875-7.644531 17.054687-17.066406 17.066406zm0 0"/><path d="m477.867188 68.265625c-18.851563 0-34.132813-15.28125-34.132813-34.132813 0-18.851562 15.28125-34.132812 34.132813-34.132812 18.851562 0 34.132812 15.28125 34.132812 34.132812-.019531 18.84375-15.289062 34.113282-34.132812 34.132813zm0-51.199219c-9.425782 0-17.066407 7.640625-17.066407 17.066406 0 9.425782 7.640625 17.066407 17.066407 17.066407 9.425781 0 17.066406-7.640625 17.066406-17.066407-.011719-9.421874-7.644532-17.054687-17.066406-17.066406zm0 0"/><path d="m358.398438 51.199219c-14.136719 0-25.597657-11.460938-25.597657-25.597657 0-14.140624 11.460938-25.601562 25.597657-25.601562 14.140624 0 25.601562 11.460938 25.601562 25.601562-.015625 14.128907-11.46875 25.582032-25.601562 25.597657zm0-34.132813c-4.710938 0-8.53125 3.820313-8.53125 8.535156 0 4.710938 3.820312 8.53125 8.53125 8.53125 4.714843 0 8.535156-3.820312 8.535156-8.53125-.003906-4.710937-3.824219-8.53125-8.535156-8.535156zm0 0"/><path d="m486.398438 221.867188c-14.136719 0-25.597657-11.460938-25.597657-25.601563 0-14.136719 11.460938-25.597656 25.597657-25.597656 14.140624 0 25.601562 11.460937 25.601562 25.597656-.015625 14.132813-11.46875 25.585937-25.601562 25.601563zm0-34.132813c-4.710938 0-8.53125 3.820313-8.53125 8.53125 0 4.714844 3.820312 8.535156 8.53125 8.535156 4.714843 0 8.535156-3.820312 8.535156-8.535156-.003906-4.710937-3.824219-8.527344-8.535156-8.53125zm0 0"/><path d="m436.667969 136.535156h-18.535157c-4.710937 0-8.53125-3.824218-8.53125-8.535156s3.820313-8.535156 8.53125-8.535156h18.535157c2.261719-.007813 4.425781-.90625 6.03125-2.5l24.132812-24.132813c1.605469-1.597656 2.503907-3.769531 2.5-6.035156v-27.0625c0-4.714844 3.820313-8.535156 8.535157-8.535156 4.710937 0 8.53125 3.820312 8.53125 8.535156v27.0625c.019531 6.792969-2.679688 13.3125-7.5 18.101563l-24.132813 24.136718c-4.789063 4.816406-11.304687 7.515625-18.097656 7.5zm0 0"/><path d="m384 102.398438c-4.710938 0-8.535156-3.820313-8.535156-8.53125v-12.800782c0-2.355468-1.910156-4.261718-4.265625-4.265625-11.777344-.011719-21.320313-9.558593-21.332031-21.335937v-12.796875c0-4.714844 3.820312-8.535157 8.53125-8.535157 4.714843 0 8.535156 3.820313 8.535156 8.535157v12.796875c.003906 2.355468 1.910156 4.265625 4.265625 4.269531 11.777343.011719 21.320312 9.554687 21.335937 21.332031v12.800782c0 4.710937-3.824218 8.53125-8.535156 8.53125zm0 0"/><path d="m469.332031 204.800781h-17.066406c-9.421875-.011719-17.054687-7.644531-17.066406-17.066406v-17.066406h-17.066407c-4.710937 0-8.53125-3.820313-8.53125-8.535157 0-4.710937 3.820313-8.53125 8.53125-8.53125h17.066407c9.421875.007813 17.054687 7.644532 17.066406 17.066407v17.066406h17.066406c4.714844 0 8.535157 3.820313 8.535157 8.53125 0 4.714844-3.820313 8.535156-8.535157 8.535156zm0 0"/><path d="m34.132812 512c-18.851562 0-34.132812-15.28125-34.132812-34.132812 0-18.851563 15.28125-34.132813 34.132812-34.132813 18.851563 0 34.132813 15.28125 34.132813 34.132813-.019531 18.84375-15.289063 34.113281-34.132813 34.132812zm0-51.199219c-9.425781 0-17.066406 7.640625-17.066406 17.066407 0 9.425781 7.640625 17.066406 17.066406 17.066406 9.425782 0 17.066407-7.640625 17.066407-17.066406-.011719-9.421876-7.644531-17.054688-17.066407-17.066407zm0 0"/><path d="m153.601562 512c-14.140624 0-25.601562-11.460938-25.601562-25.601562 0-14.136719 11.460938-25.597657 25.601562-25.597657 14.136719 0 25.597657 11.460938 25.597657 25.597657-.015625 14.132812-11.46875 25.585937-25.597657 25.601562zm0-34.132812c-4.714843 0-8.535156 3.820312-8.535156 8.53125 0 4.714843 3.820313 8.535156 8.535156 8.535156 4.710938 0 8.53125-3.820313 8.53125-8.535156-.003906-4.710938-3.820312-8.527344-8.53125-8.53125zm0 0"/><path d="m25.601562 341.332031c-14.140624 0-25.601562-11.460937-25.601562-25.597656 0-14.140625 11.460938-25.601563 25.601562-25.601563 14.136719 0 25.597657 11.460938 25.597657 25.601563-.015625 14.132813-11.46875 25.582031-25.597657 25.597656zm0-34.132812c-4.714843 0-8.535156 3.820312-8.535156 8.535156 0 4.710937 3.820313 8.53125 8.535156 8.53125 4.710938 0 8.53125-3.820313 8.53125-8.53125-.003906-4.710937-3.820312-8.53125-8.53125-8.535156zm0 0"/><path d="m34.132812 460.800781c-4.710937 0-8.53125-3.820312-8.53125-8.535156v-27.0625c-.019531-6.792969 2.679688-13.3125 7.5-18.101563l24.132813-24.136718c4.789063-4.816406 11.304687-7.515625 18.097656-7.5h18.535157c4.710937 0 8.53125 3.824218 8.53125 8.535156s-3.820313 8.535156-8.53125 8.535156h-18.535157c-2.261719.007813-4.425781.90625-6.03125 2.5l-24.132812 24.132813c-1.605469 1.597656-2.503907 3.769531-2.5 6.035156v27.0625c0 4.714844-3.820313 8.535156-8.535157 8.535156zm0 0"/><path d="m153.601562 477.867188c-4.714843 0-8.535156-3.820313-8.535156-8.535157v-12.796875c-.003906-2.355468-1.910156-4.265625-4.265625-4.269531-11.777343-.011719-21.320312-9.554687-21.335937-21.332031v-12.800782c0-4.710937 3.824218-8.53125 8.535156-8.53125s8.535156 3.820313 8.535156 8.53125v12.800782c0 2.355468 1.910156 4.261718 4.265625 4.265625 11.777344.011719 21.320313 9.558593 21.332031 21.335937v12.796875c0 4.714844-3.820312 8.535157-8.53125 8.535157zm0 0"/><path d="m93.867188 358.398438h-17.066407c-9.421875-.007813-17.054687-7.644532-17.066406-17.066407v-17.066406h-17.066406c-4.714844 0-8.535157-3.820313-8.535157-8.53125 0-4.714844 3.820313-8.535156 8.535157-8.535156h17.066406c9.421875.011719 17.054687 7.644531 17.066406 17.066406v17.066406h17.066407c4.710937 0 8.53125 3.820313 8.53125 8.535157 0 4.710937-3.820313 8.53125-8.53125 8.53125zm0 0"/><path d="m477.867188 512c-18.851563 0-34.132813-15.28125-34.132813-34.132812 0-18.851563 15.28125-34.132813 34.132813-34.132813 18.851562 0 34.132812 15.28125 34.132812 34.132813-.019531 18.84375-15.289062 34.113281-34.132812 34.132812zm0-51.199219c-9.425782 0-17.066407 7.640625-17.066407 17.066407 0 9.425781 7.640625 17.066406 17.066407 17.066406 9.425781 0 17.066406-7.640625 17.066406-17.066406-.011719-9.421876-7.644532-17.054688-17.066406-17.066407zm0 0"/><path d="m358.398438 512c-14.136719 0-25.597657-11.460938-25.597657-25.601562 0-14.136719 11.460938-25.597657 25.597657-25.597657 14.140624 0 25.601562 11.460938 25.601562 25.597657-.015625 14.132812-11.46875 25.585937-25.601562 25.601562zm0-34.132812c-4.710938 0-8.53125 3.820312-8.53125 8.53125 0 4.714843 3.820312 8.535156 8.53125 8.535156 4.714843 0 8.535156-3.820313 8.535156-8.535156-.003906-4.710938-3.824219-8.527344-8.535156-8.53125zm0 0"/><path d="m486.398438 341.332031c-14.136719 0-25.597657-11.460937-25.597657-25.597656 0-14.140625 11.460938-25.601563 25.597657-25.601563 14.140624 0 25.601562 11.460938 25.601562 25.601563-.015625 14.132813-11.46875 25.582031-25.601562 25.597656zm0-34.132812c-4.710938 0-8.53125 3.820312-8.53125 8.535156 0 4.710937 3.820312 8.53125 8.53125 8.53125 4.714843 0 8.535156-3.820313 8.535156-8.53125-.003906-4.710937-3.824219-8.53125-8.535156-8.535156zm0 0"/><path d="m477.867188 460.800781c-4.714844 0-8.535157-3.820312-8.535157-8.535156v-27.0625c.003907-2.265625-.894531-4.4375-2.5-6.035156l-24.132812-24.132813c-1.605469-1.59375-3.769531-2.492187-6.03125-2.5h-18.535157c-4.710937 0-8.53125-3.824218-8.53125-8.535156s3.820313-8.535156 8.53125-8.535156h18.535157c6.792969-.015625 13.308593 2.683594 18.097656 7.5l24.132813 24.136718c4.820312 4.789063 7.519531 11.308594 7.5 18.101563v27.0625c0 4.714844-3.820313 8.535156-8.53125 8.535156zm0 0"/><path d="m358.398438 477.867188c-4.710938 0-8.53125-3.820313-8.53125-8.535157v-12.796875c.011718-11.777344 9.554687-21.324218 21.332031-21.335937 2.355469-.003907 4.265625-1.910157 4.265625-4.265625v-12.800782c0-4.710937 3.824218-8.53125 8.535156-8.53125s8.535156 3.820313 8.535156 8.53125v12.800782c-.015625 11.777344-9.558594 21.320312-21.335937 21.332031-2.355469.003906-4.261719 1.914063-4.265625 4.269531v12.796875c0 4.714844-3.820313 8.535157-8.535156 8.535157zm0 0"/><path d="m435.199219 358.398438h-17.066407c-4.710937 0-8.53125-3.820313-8.53125-8.53125 0-4.714844 3.820313-8.535157 8.53125-8.535157h17.066407v-17.066406c.011719-9.421875 7.644531-17.054687 17.066406-17.066406h17.066406c4.714844 0 8.535157 3.820312 8.535157 8.535156 0 4.710937-3.820313 8.53125-8.535157 8.53125h-17.066406v17.066406c-.011719 9.421875-7.644531 17.058594-17.066406 17.066407zm0 0"/></svg>